<svg width="197" height="35" viewBox="0 0 197 35" fill="none" xmlns="http://www.w3.org/2000/svg">
<path d="M0.275568 0.818181H7.10227L14.3125 18.4091H14.6193L21.8295 0.818181H28.6562V27H23.2869V9.95881H23.0696L16.294 26.8722H12.6378L5.86222 9.89489H5.64489V27H0.275568V0.818181ZM35.8649 34.3636C35.1746 34.3636 34.5268 34.3082 33.9217 34.1974C33.3251 34.0952 32.8308 33.9631 32.4388 33.8011L33.6661 29.7358C34.3053 29.9318 34.8805 30.0384 35.3919 30.0554C35.9118 30.0724 36.3592 29.9531 36.7342 29.6974C37.1178 29.4418 37.4288 29.0071 37.6675 28.3935L37.9871 27.5625L30.943 7.36364H36.6703L40.7357 21.7841H40.9402L45.0439 7.36364H50.8095L43.1774 29.1222C42.8109 30.179 42.3124 31.0994 41.6817 31.8835C41.0595 32.6761 40.2712 33.2855 39.3166 33.7116C38.3621 34.1463 37.2115 34.3636 35.8649 34.3636ZM53.9816 27V0.818181H69.6805V3.63068H57.1521V12.4773H68.5043V15.2898H57.1521V27H53.9816ZM74.0894 27V7.36364H77.1065V27H74.0894ZM75.6235 4.09091C75.0355 4.09091 74.5283 3.89062 74.1022 3.49006C73.6846 3.08949 73.4758 2.60795 73.4758 2.04545C73.4758 1.48295 73.6846 1.00142 74.1022 0.600851C74.5283 0.200284 75.0355 0 75.6235 0C76.2116 0 76.7144 0.200284 77.132 0.600851C77.5582 1.00142 77.7712 1.48295 77.7712 2.04545C77.7712 2.60795 77.5582 3.08949 77.132 3.49006C76.7144 3.89062 76.2116 4.09091 75.6235 4.09091ZM85.0374 15.1875V27H82.0204V7.36364H84.9352V10.4318H85.1909C85.6511 9.43466 86.3499 8.63352 87.2874 8.02841C88.2249 7.41477 89.4352 7.10795 90.9181 7.10795C92.2477 7.10795 93.411 7.38068 94.4082 7.92614C95.4053 8.46307 96.1809 9.28125 96.7349 10.3807C97.2889 11.4716 97.5659 12.8523 97.5659 14.5227V27H94.5488V14.7273C94.5488 13.1847 94.1482 11.983 93.3471 11.1222C92.546 10.2528 91.4465 9.81818 90.0488 9.81818C89.0857 9.81818 88.2249 10.027 87.4664 10.4446C86.7164 10.8622 86.1241 11.4716 85.6894 12.2727C85.2548 13.0739 85.0374 14.0455 85.0374 15.1875ZM108.245 27.4602C107.001 27.4602 105.872 27.2259 104.858 26.7571C103.843 26.2798 103.038 25.5938 102.441 24.6989C101.845 23.7955 101.547 22.7045 101.547 21.4261C101.547 20.3011 101.768 19.3892 102.211 18.6903C102.654 17.983 103.247 17.429 103.988 17.0284C104.73 16.6278 105.548 16.3295 106.443 16.1335C107.346 15.929 108.254 15.767 109.166 15.6477C110.359 15.4943 111.326 15.3793 112.068 15.3026C112.818 15.2173 113.363 15.0767 113.704 14.8807C114.054 14.6847 114.228 14.3437 114.228 13.858V13.7557C114.228 12.4943 113.883 11.5142 113.193 10.8153C112.511 10.1165 111.476 9.76705 110.086 9.76705C108.646 9.76705 107.517 10.0824 106.699 10.7131C105.88 11.3437 105.305 12.017 104.973 12.733L102.109 11.7102C102.62 10.517 103.302 9.58807 104.154 8.9233C105.015 8.25 105.953 7.78125 106.967 7.51705C107.99 7.24432 108.995 7.10795 109.984 7.10795C110.615 7.10795 111.339 7.18466 112.157 7.33807C112.984 7.48295 113.781 7.78551 114.548 8.24574C115.324 8.70597 115.967 9.40057 116.478 10.3295C116.99 11.2585 117.245 12.5028 117.245 14.0625V27H114.228V24.3409H114.075C113.87 24.767 113.529 25.223 113.052 25.7088C112.575 26.1946 111.94 26.608 111.147 26.9489C110.355 27.2898 109.387 27.4602 108.245 27.4602ZM108.706 24.75C109.899 24.75 110.904 24.5156 111.723 24.0469C112.549 23.5781 113.172 22.973 113.589 22.2315C114.015 21.4901 114.228 20.7102 114.228 19.892V17.1307C114.101 17.2841 113.819 17.4247 113.385 17.5526C112.958 17.6719 112.464 17.7784 111.902 17.8722C111.348 17.9574 110.806 18.0341 110.278 18.1023C109.758 18.1619 109.336 18.2131 109.012 18.2557C108.228 18.358 107.495 18.5241 106.814 18.7543C106.14 18.9759 105.595 19.3125 105.177 19.7642C104.768 20.2074 104.564 20.8125 104.564 21.5795C104.564 22.6278 104.951 23.4205 105.727 23.9574C106.511 24.4858 107.504 24.75 108.706 24.75ZM125.157 15.1875V27H122.14V7.36364H125.055V10.4318H125.311C125.771 9.43466 126.47 8.63352 127.407 8.02841C128.345 7.41477 129.555 7.10795 131.038 7.10795C132.367 7.10795 133.531 7.38068 134.528 7.92614C135.525 8.46307 136.301 9.28125 136.855 10.3807C137.409 11.4716 137.686 12.8523 137.686 14.5227V27H134.669V14.7273C134.669 13.1847 134.268 11.983 133.467 11.1222C132.666 10.2528 131.566 9.81818 130.169 9.81818C129.205 9.81818 128.345 10.027 127.586 10.4446C126.836 10.8622 126.244 11.4716 125.809 12.2727C125.375 13.0739 125.157 14.0455 125.157 15.1875ZM150.564 27.4091C148.723 27.4091 147.138 26.9744 145.808 26.1051C144.479 25.2358 143.456 24.0384 142.74 22.5128C142.024 20.9872 141.666 19.2443 141.666 17.2841C141.666 15.2898 142.033 13.5298 142.766 12.0043C143.507 10.4702 144.538 9.27273 145.859 8.41193C147.189 7.54261 148.74 7.10795 150.513 7.10795C151.894 7.10795 153.138 7.36364 154.246 7.875C155.354 8.38636 156.261 9.10227 156.969 10.0227C157.676 10.9432 158.115 12.017 158.286 13.2443H155.269C155.038 12.3494 154.527 11.5568 153.734 10.8665C152.95 10.1676 151.894 9.81818 150.564 9.81818C149.388 9.81818 148.357 10.125 147.47 10.7386C146.592 11.3437 145.906 12.2003 145.412 13.3082C144.926 14.4077 144.683 15.6989 144.683 17.1818C144.683 18.6989 144.922 20.0199 145.399 21.1449C145.885 22.2699 146.567 23.1435 147.445 23.7656C148.331 24.3878 149.371 24.6989 150.564 24.6989C151.348 24.6989 152.06 24.5625 152.699 24.2898C153.338 24.017 153.879 23.625 154.323 23.1136C154.766 22.6023 155.081 21.9886 155.269 21.2727H158.286C158.115 22.4318 157.693 23.4759 157.02 24.4048C156.355 25.3253 155.473 26.0582 154.374 26.6037C153.283 27.1406 152.013 27.4091 150.564 27.4091ZM170.317 27.4091C168.425 27.4091 166.793 26.9915 165.421 26.1562C164.057 25.3125 163.005 24.1364 162.263 22.6278C161.53 21.1108 161.164 19.3466 161.164 17.3352C161.164 15.3239 161.53 13.5511 162.263 12.017C163.005 10.4744 164.036 9.27273 165.357 8.41193C166.686 7.54261 168.238 7.10795 170.01 7.10795C171.033 7.10795 172.043 7.27841 173.04 7.61932C174.037 7.96023 174.945 8.5142 175.763 9.28125C176.581 10.0398 177.233 11.0455 177.719 12.2983C178.205 13.5511 178.448 15.0937 178.448 16.9261V18.2045H163.311V15.5966H175.38C175.38 14.4886 175.158 13.5 174.715 12.6307C174.28 11.7614 173.658 11.0753 172.848 10.5724C172.047 10.0696 171.101 9.81818 170.01 9.81818C168.809 9.81818 167.769 10.1165 166.891 10.7131C166.022 11.3011 165.353 12.0682 164.884 13.0142C164.415 13.9602 164.181 14.9744 164.181 16.0568V17.7955C164.181 19.2784 164.436 20.5355 164.948 21.5668C165.468 22.5895 166.188 23.3693 167.108 23.9062C168.029 24.4347 169.098 24.6989 170.317 24.6989C171.11 24.6989 171.826 24.5881 172.465 24.3665C173.113 24.1364 173.671 23.7955 174.14 23.3438C174.608 22.8835 174.97 22.3125 175.226 21.6307L178.141 22.4489C177.834 23.4375 177.318 24.3068 176.594 25.0568C175.87 25.7983 174.975 26.3778 173.909 26.7955C172.844 27.2045 171.647 27.4091 170.317 27.4091ZM196.334 11.7614L193.624 12.5284C193.454 12.0767 193.202 11.6378 192.87 11.2116C192.546 10.777 192.103 10.419 191.54 10.1378C190.978 9.85653 190.258 9.71591 189.38 9.71591C188.178 9.71591 187.177 9.9929 186.376 10.5469C185.583 11.0923 185.187 11.7869 185.187 12.6307C185.187 13.3807 185.459 13.973 186.005 14.4077C186.55 14.8423 187.403 15.2045 188.562 15.4943L191.476 16.2102C193.232 16.6364 194.54 17.2884 195.401 18.1662C196.262 19.0355 196.692 20.1562 196.692 21.5284C196.692 22.6534 196.368 23.6591 195.721 24.5455C195.081 25.4318 194.187 26.1307 193.036 26.642C191.885 27.1534 190.547 27.4091 189.022 27.4091C187.019 27.4091 185.361 26.9744 184.049 26.1051C182.736 25.2358 181.905 23.9659 181.556 22.2955L184.42 21.5795C184.692 22.6364 185.208 23.429 185.966 23.9574C186.733 24.4858 187.735 24.75 188.971 24.75C190.377 24.75 191.493 24.4517 192.32 23.8551C193.155 23.25 193.573 22.5256 193.573 21.6818C193.573 21 193.334 20.429 192.857 19.9688C192.38 19.5 191.647 19.1506 190.658 18.9205L187.385 18.1534C185.587 17.7273 184.266 17.0668 183.422 16.1719C182.587 15.2685 182.17 14.1392 182.17 12.7841C182.17 11.6761 182.481 10.696 183.103 9.84375C183.733 8.99148 184.59 8.32244 185.672 7.83665C186.763 7.35085 187.999 7.10795 189.38 7.10795C191.323 7.10795 192.849 7.53409 193.956 8.38636C195.073 9.23864 195.866 10.3636 196.334 11.7614Z" fill="white"/>
</svg>
